<?xml version="1.0" encoding="utf-8"?>
<!-- Generator: Adobe Illustrator 28.0.0, SVG Export Plug-In . SVG Version: 6.00 Build 0)  -->
<svg version="1.1" id="Layer_1" xmlns="http://www.w3.org/2000/svg" xmlns:xlink="http://www.w3.org/1999/xlink" x="0px" y="0px"
	 viewBox="0 0 442.36 294.99" style="enable-background:new 0 0 442.36 294.99;" xml:space="preserve">
<style type="text/css">
	.st0{fill:#999999;}
</style>
<g id="Logo">
	<path d="M0,127.18l7.66,2.74v29.68C3.37,160.03,0,163.67,0,168.06v35.8c0,4.68,3.83,8.5,8.5,8.5h13.61c4.68,0,8.5-3.83,8.5-8.5
		v-35.8c0-4.68-3.83-8.5-8.5-8.5h-0.08v-24.49l173.77,62.12v-48.11L67.29,103.13l128.51-45.94V9.07L0,79.07V127.18z"/>
	<polygon points="246.55,9.07 246.55,57.18 375.06,103.13 246.55,149.07 246.55,197.18 442.36,127.18 442.36,79.07 	"/>
	<polygon class="st0" points="372.42,167.55 372.42,215.45 233.4,266.09 233.4,154.12 221.18,158.32 208.96,153.77 208.96,266.09 
		69.93,215.45 69.93,167.18 45.49,158.1 45.49,206.55 45.49,226.67 45.49,230.99 221.18,294.99 396.87,230.99 396.87,223.68 
		396.87,206.55 396.87,158.45 	"/>
	<polygon class="st0" points="233.4,52.48 221.18,48.11 208.96,52.48 208.96,4.37 221.18,0 233.4,4.37 	"/>
</g>
</svg>
